<svg id="Capa_1" enable-background="new 0 0 512 512" height="512" viewBox="0 0 512 512" width="512" xmlns="http://www.w3.org/2000/svg"><g><g><path d="m88.994 188.511v246.656l167.006 76.804 36.765-156.489-36.765-166.488z" fill="#fe9d3f"/><path d="m256 188.994v322.977l.062.029 166.932-76.836.012-245.688z" fill="#fe853f"/></g><g><path d="m164.029.352c-20.026 0-38.836 7.69-52.965 21.652-14.21 14.042-22.035 32.806-22.035 52.835l.012 37.843 15.338 34.487-15.35 41.812 166.971-.175 40.294-75.453-40.294-113.177z" fill="#1aa432"/><path d="m422.971 74.957c0-41.332-33.65-74.957-75.04-74.957l-91.931.176v188.629l166.96-.175-16.204-38.487 16.204-37.461z" fill="#147f27"/></g><g><path d="m89.041 112.682v64.553h166.959l17.706-34.382-17.706-30.171z" fill="#a4ea2e"/><path d="m256 112.682h166.959v64.553h-166.959z" fill="#1fc73d"/></g><g><path d="m201 83.369v105.612h30v-75.583h25l8.882-14.869-8.882-15.16z" fill="#ffdf3f"/><path d="m256 83.369v30.029h25v75.583h30v-105.612z" fill="#ffbe40"/></g><g><path d="m150 188.981v135.691h106l17.706-63.713-17.706-71.978z" fill="#ffddce"/><path d="m256 188.981h106v135.691h-106z" fill="#ffccbd"/></g><g><path d="m200.5 234.341h30v30.029h-30z" fill="#5a5a5a"/><path d="m281.5 234.341h30v30.029h-30z" fill="#292929"/></g><g><path d="m57.294 173.838v30.028h198.706l12.412-15.014-12.412-15.014z" fill="#1aa432"/><path d="m256 173.838h198.706v30.029h-198.706z" fill="#147f27"/></g><g><path d="m226 355.482h-30c0 33.068 26.916 59.972 60 59.972l11-14.807-11-15.222c-16.542 0-30-13.432-30-29.943z" fill="#fe853f"/><path d="m286 355.482c0 16.51-13.458 29.943-30 29.943v30.029c33.084 0 60-26.903 60-59.972z" fill="#ff4d4d"/></g></g></svg>